  0
SECTION
  2
BLOCKS
  0
ENDSEC
  0
SECTION
  2
ENTITIES
  0
LINE
  8
0
 10
-51.5
 11
-51.496
 20
-15.5
 21
-15.395
  0
LINE
  8
0
 10
-51.496
 11
-51.485
 20
-15.395
 21
-15.291
  0
LINE
  8
0
 10
-51.485
 11
-51.467
 20
-15.291
 21
-15.188
  0
LINE
  8
0
 10
-51.467
 11
-51.442
 20
-15.188
 21
-15.087
  0
LINE
  8
0
 10
-51.442
 11
-51.41
 20
-15.087
 21
-14.987
  0
LINE
  8
0
 10
-51.41
 11
-51.37
 20
-14.987
 21
-14.89
  0
LINE
  8
0
 10
-51.37
 11
-51.324
 20
-14.89
 21
-14.796
  0
LINE
  8
0
 10
-51.324
 11
-51.272
 20
-14.796
 21
-14.705
  0
LINE
  8
0
 10
-51.272
 11
-51.214
 20
-14.705
 21
-14.618
  0
LINE
  8
0
 10
-51.214
 11
-51.149
 20
-14.618
 21
-14.536
  0
LINE
  8
0
 10
-51.149
 11
-51.079
 20
-14.536
 21
-14.458
  0
LINE
  8
0
 10
-51.079
 11
-51.004
 20
-14.458
 21
-14.385
  0
LINE
  8
0
 10
-51.004
 11
-50.923
 20
-14.385
 21
-14.318
  0
LINE
  8
0
 10
-50.923
 11
-50.839
 20
-14.318
 21
-14.256
  0
LINE
  8
0
 10
-50.839
 11
-50.75
 20
-14.256
 21
-14.201
  0
LINE
  8
0
 10
-50.75
 11
-50.658
 20
-14.201
 21
-14.152
  0
LINE
  8
0
 10
-50.658
 11
-50.562
 20
-14.152
 21
-14.109
  0
LINE
  8
0
 10
-50.562
 11
-50.464
 20
-14.109
 21
-14.073
  0
LINE
  8
0
 10
-50.464
 11
-50.363
 20
-14.073
 21
-14.045
  0
LINE
  8
0
 10
-50.363
 11
-50.26
 20
-14.045
 21
-14.023
  0
LINE
  8
0
 10
-50.26
 11
-50.157
 20
-14.023
 21
-14.008
  0
LINE
  8
0
 10
-50.157
 11
-50.052
 20
-14.008
 21
-14.001
  0
LINE
  8
0
 10
-50.052
 11
-49.948
 20
-14.001
 21
-14.001
  0
LINE
  8
0
 10
-49.948
 11
-49.843
 20
-14.001
 21
-14.008
  0
LINE
  8
0
 10
-49.843
 11
-49.74
 20
-14.008
 21
-14.023
  0
LINE
  8
0
 10
-49.74
 11
-49.637
 20
-14.023
 21
-14.045
  0
LINE
  8
0
 10
-49.637
 11
-49.536
 20
-14.045
 21
-14.073
  0
LINE
  8
0
 10
-49.536
 11
-49.438
 20
-14.073
 21
-14.109
  0
LINE
  8
0
 10
-49.438
 11
-49.342
 20
-14.109
 21
-14.152
  0
LINE
  8
0
 10
-49.342
 11
-49.25
 20
-14.152
 21
-14.201
  0
LINE
  8
0
 10
-49.25
 11
-49.161
 20
-14.201
 21
-14.256
  0
LINE
  8
0
 10
-49.161
 11
-49.077
 20
-14.256
 21
-14.318
  0
LINE
  8
0
 10
-49.077
 11
-48.996
 20
-14.318
 21
-14.385
  0
LINE
  8
0
 10
-48.996
 11
-48.921
 20
-14.385
 21
-14.458
  0
LINE
  8
0
 10
-48.921
 11
-48.851
 20
-14.458
 21
-14.536
  0
LINE
  8
0
 10
-48.851
 11
-48.786
 20
-14.536
 21
-14.618
  0
LINE
  8
0
 10
-48.786
 11
-48.728
 20
-14.618
 21
-14.705
  0
LINE
  8
0
 10
-48.728
 11
-48.676
 20
-14.705
 21
-14.796
  0
LINE
  8
0
 10
-48.676
 11
-48.63
 20
-14.796
 21
-14.89
  0
LINE
  8
0
 10
-48.63
 11
-48.59
 20
-14.89
 21
-14.987
  0
LINE
  8
0
 10
-48.59
 11
-48.558
 20
-14.987
 21
-15.087
  0
LINE
  8
0
 10
-48.558
 11
-48.533
 20
-15.087
 21
-15.188
  0
LINE
  8
0
 10
-48.533
 11
-48.515
 20
-15.188
 21
-15.291
  0
LINE
  8
0
 10
-48.515
 11
-48.504
 20
-15.291
 21
-15.395
  0
LINE
  8
0
 10
-48.504
 11
-48.5
 20
-15.395
 21
-15.5
  0
LINE
  8
0
 10
-48.5
 11
-48.504
 20
-15.5
 21
-15.605
  0
LINE
  8
0
 10
-48.504
 11
-48.515
 20
-15.605
 21
-15.709
  0
LINE
  8
0
 10
-48.515
 11
-48.533
 20
-15.709
 21
-15.812
  0
LINE
  8
0
 10
-48.533
 11
-48.558
 20
-15.812
 21
-15.913
  0
LINE
  8
0
 10
-48.558
 11
-48.59
 20
-15.913
 21
-16.013
  0
LINE
  8
0
 10
-48.59
 11
-48.63
 20
-16.013
 21
-16.11
  0
LINE
  8
0
 10
-48.63
 11
-48.676
 20
-16.11
 21
-16.204
  0
LINE
  8
0
 10
-48.676
 11
-48.728
 20
-16.204
 21
-16.295
  0
LINE
  8
0
 10
-48.728
 11
-48.786
 20
-16.295
 21
-16.382
  0
LINE
  8
0
 10
-48.786
 11
-48.851
 20
-16.382
 21
-16.464
  0
LINE
  8
0
 10
-48.851
 11
-48.921
 20
-16.464
 21
-16.542
  0
LINE
  8
0
 10
-48.921
 11
-48.996
 20
-16.542
 21
-16.615
  0
LINE
  8
0
 10
-48.996
 11
-49.077
 20
-16.615
 21
-16.682
  0
LINE
  8
0
 10
-49.077
 11
-49.161
 20
-16.682
 21
-16.744
  0
LINE
  8
0
 10
-49.161
 11
-49.25
 20
-16.744
 21
-16.799
  0
LINE
  8
0
 10
-49.25
 11
-49.342
 20
-16.799
 21
-16.848
  0
LINE
  8
0
 10
-49.342
 11
-49.438
 20
-16.848
 21
-16.891
  0
LINE
  8
0
 10
-49.438
 11
-49.536
 20
-16.891
 21
-16.927
  0
LINE
  8
0
 10
-49.536
 11
-49.637
 20
-16.927
 21
-16.955
  0
LINE
  8
0
 10
-49.637
 11
-49.74
 20
-16.955
 21
-16.977
  0
LINE
  8
0
 10
-49.74
 11
-49.843
 20
-16.977
 21
-16.992
  0
LINE
  8
0
 10
-49.843
 11
-49.948
 20
-16.992
 21
-16.999
  0
LINE
  8
0
 10
-49.948
 11
-50.052
 20
-16.999
 21
-16.999
  0
LINE
  8
0
 10
-50.052
 11
-50.157
 20
-16.999
 21
-16.992
  0
LINE
  8
0
 10
-50.157
 11
-50.26
 20
-16.992
 21
-16.977
  0
LINE
  8
0
 10
-50.26
 11
-50.363
 20
-16.977
 21
-16.955
  0
LINE
  8
0
 10
-50.363
 11
-50.464
 20
-16.955
 21
-16.927
  0
LINE
  8
0
 10
-50.464
 11
-50.562
 20
-16.927
 21
-16.891
  0
LINE
  8
0
 10
-50.562
 11
-50.658
 20
-16.891
 21
-16.848
  0
LINE
  8
0
 10
-50.658
 11
-50.75
 20
-16.848
 21
-16.799
  0
LINE
  8
0
 10
-50.75
 11
-50.839
 20
-16.799
 21
-16.744
  0
LINE
  8
0
 10
-50.839
 11
-50.923
 20
-16.744
 21
-16.682
  0
LINE
  8
0
 10
-50.923
 11
-51.004
 20
-16.682
 21
-16.615
  0
LINE
  8
0
 10
-51.004
 11
-51.079
 20
-16.615
 21
-16.542
  0
LINE
  8
0
 10
-51.079
 11
-51.149
 20
-16.542
 21
-16.464
  0
LINE
  8
0
 10
-51.149
 11
-51.214
 20
-16.464
 21
-16.382
  0
LINE
  8
0
 10
-51.214
 11
-51.272
 20
-16.382
 21
-16.295
  0
LINE
  8
0
 10
-51.272
 11
-51.324
 20
-16.295
 21
-16.204
  0
LINE
  8
0
 10
-51.324
 11
-51.37
 20
-16.204
 21
-16.11
  0
LINE
  8
0
 10
-51.37
 11
-51.41
 20
-16.11
 21
-16.013
  0
LINE
  8
0
 10
-51.41
 11
-51.442
 20
-16.013
 21
-15.913
  0
LINE
  8
0
 10
-51.442
 11
-51.467
 20
-15.913
 21
-15.812
  0
LINE
  8
0
 10
-51.467
 11
-51.485
 20
-15.812
 21
-15.709
  0
LINE
  8
0
 10
-51.485
 11
-51.496
 20
-15.709
 21
-15.605
  0
LINE
  8
0
 10
-51.496
 11
-51.5
 20
-15.605
 21
-15.5
  0
LINE
  8
0
 10
-51.5
 11
-51.496
 20
15.5
 21
15.605
  0
LINE
  8
0
 10
-51.496
 11
-51.485
 20
15.605
 21
15.709
  0
LINE
  8
0
 10
-51.485
 11
-51.467
 20
15.709
 21
15.812
  0
LINE
  8
0
 10
-51.467
 11
-51.442
 20
15.812
 21
15.913
  0
LINE
  8
0
 10
-51.442
 11
-51.41
 20
15.913
 21
16.013
  0
LINE
  8
0
 10
-51.41
 11
-51.37
 20
16.013
 21
16.11
  0
LINE
  8
0
 10
-51.37
 11
-51.324
 20
16.11
 21
16.204
  0
LINE
  8
0
 10
-51.324
 11
-51.272
 20
16.204
 21
16.295
  0
LINE
  8
0
 10
-51.272
 11
-51.214
 20
16.295
 21
16.382
  0
LINE
  8
0
 10
-51.214
 11
-51.149
 20
16.382
 21
16.464
  0
LINE
  8
0
 10
-51.149
 11
-51.079
 20
16.464
 21
16.542
  0
LINE
  8
0
 10
-51.079
 11
-51.004
 20
16.542
 21
16.615
  0
LINE
  8
0
 10
-51.004
 11
-50.923
 20
16.615
 21
16.682
  0
LINE
  8
0
 10
-50.923
 11
-50.839
 20
16.682
 21
16.744
  0
LINE
  8
0
 10
-50.839
 11
-50.75
 20
16.744
 21
16.799
  0
LINE
  8
0
 10
-50.75
 11
-50.658
 20
16.799
 21
16.848
  0
LINE
  8
0
 10
-50.658
 11
-50.562
 20
16.848
 21
16.891
  0
LINE
  8
0
 10
-50.562
 11
-50.464
 20
16.891
 21
16.927
  0
LINE
  8
0
 10
-50.464
 11
-50.363
 20
16.927
 21
16.955
  0
LINE
  8
0
 10
-50.363
 11
-50.26
 20
16.955
 21
16.977
  0
LINE
  8
0
 10
-50.26
 11
-50.157
 20
16.977
 21
16.992
  0
LINE
  8
0
 10
-50.157
 11
-50.052
 20
16.992
 21
16.999
  0
LINE
  8
0
 10
-50.052
 11
-49.948
 20
16.999
 21
16.999
  0
LINE
  8
0
 10
-49.948
 11
-49.843
 20
16.999
 21
16.992
  0
LINE
  8
0
 10
-49.843
 11
-49.74
 20
16.992
 21
16.977
  0
LINE
  8
0
 10
-49.74
 11
-49.637
 20
16.977
 21
16.955
  0
LINE
  8
0
 10
-49.637
 11
-49.536
 20
16.955
 21
16.927
  0
LINE
  8
0
 10
-49.536
 11
-49.438
 20
16.927
 21
16.891
  0
LINE
  8
0
 10
-49.438
 11
-49.342
 20
16.891
 21
16.848
  0
LINE
  8
0
 10
-49.342
 11
-49.25
 20
16.848
 21
16.799
  0
LINE
  8
0
 10
-49.25
 11
-49.161
 20
16.799
 21
16.744
  0
LINE
  8
0
 10
-49.161
 11
-49.077
 20
16.744
 21
16.682
  0
LINE
  8
0
 10
-49.077
 11
-48.996
 20
16.682
 21
16.615
  0
LINE
  8
0
 10
-48.996
 11
-48.921
 20
16.615
 21
16.542
  0
LINE
  8
0
 10
-48.921
 11
-48.851
 20
16.542
 21
16.464
  0
LINE
  8
0
 10
-48.851
 11
-48.786
 20
16.464
 21
16.382
  0
LINE
  8
0
 10
-48.786
 11
-48.728
 20
16.382
 21
16.295
  0
LINE
  8
0
 10
-48.728
 11
-48.676
 20
16.295
 21
16.204
  0
LINE
  8
0
 10
-48.676
 11
-48.63
 20
16.204
 21
16.11
  0
LINE
  8
0
 10
-48.63
 11
-48.59
 20
16.11
 21
16.013
  0
LINE
  8
0
 10
-48.59
 11
-48.558
 20
16.013
 21
15.913
  0
LINE
  8
0
 10
-48.558
 11
-48.533
 20
15.913
 21
15.812
  0
LINE
  8
0
 10
-48.533
 11
-48.515
 20
15.812
 21
15.709
  0
LINE
  8
0
 10
-48.515
 11
-48.504
 20
15.709
 21
15.605
  0
LINE
  8
0
 10
-48.504
 11
-48.5
 20
15.605
 21
15.5
  0
LINE
  8
0
 10
-48.5
 11
-48.504
 20
15.5
 21
15.395
  0
LINE
  8
0
 10
-48.504
 11
-48.515
 20
15.395
 21
15.291
  0
LINE
  8
0
 10
-48.515
 11
-48.533
 20
15.291
 21
15.188
  0
LINE
  8
0
 10
-48.533
 11
-48.558
 20
15.188
 21
15.087
  0
LINE
  8
0
 10
-48.558
 11
-48.59
 20
15.087
 21
14.987
  0
LINE
  8
0
 10
-48.59
 11
-48.63
 20
14.987
 21
14.89
  0
LINE
  8
0
 10
-48.63
 11
-48.676
 20
14.89
 21
14.796
  0
LINE
  8
0
 10
-48.676
 11
-48.728
 20
14.796
 21
14.705
  0
LINE
  8
0
 10
-48.728
 11
-48.786
 20
14.705
 21
14.618
  0
LINE
  8
0
 10
-48.786
 11
-48.851
 20
14.618
 21
14.536
  0
LINE
  8
0
 10
-48.851
 11
-48.921
 20
14.536
 21
14.458
  0
LINE
  8
0
 10
-48.921
 11
-48.996
 20
14.458
 21
14.385
  0
LINE
  8
0
 10
-48.996
 11
-49.077
 20
14.385
 21
14.318
  0
LINE
  8
0
 10
-49.077
 11
-49.161
 20
14.318
 21
14.256
  0
LINE
  8
0
 10
-49.161
 11
-49.25
 20
14.256
 21
14.201
  0
LINE
  8
0
 10
-49.25
 11
-49.342
 20
14.201
 21
14.152
  0
LINE
  8
0
 10
-49.342
 11
-49.438
 20
14.152
 21
14.109
  0
LINE
  8
0
 10
-49.438
 11
-49.536
 20
14.109
 21
14.073
  0
LINE
  8
0
 10
-49.536
 11
-49.637
 20
14.073
 21
14.045
  0
LINE
  8
0
 10
-49.637
 11
-49.74
 20
14.045
 21
14.023
  0
LINE
  8
0
 10
-49.74
 11
-49.843
 20
14.023
 21
14.008
  0
LINE
  8
0
 10
-49.843
 11
-49.948
 20
14.008
 21
14.001
  0
LINE
  8
0
 10
-49.948
 11
-50.052
 20
14.001
 21
14.001
  0
LINE
  8
0
 10
-50.052
 11
-50.157
 20
14.001
 21
14.008
  0
LINE
  8
0
 10
-50.157
 11
-50.26
 20
14.008
 21
14.023
  0
LINE
  8
0
 10
-50.26
 11
-50.363
 20
14.023
 21
14.045
  0
LINE
  8
0
 10
-50.363
 11
-50.464
 20
14.045
 21
14.073
  0
LINE
  8
0
 10
-50.464
 11
-50.562
 20
14.073
 21
14.109
  0
LINE
  8
0
 10
-50.562
 11
-50.658
 20
14.109
 21
14.152
  0
LINE
  8
0
 10
-50.658
 11
-50.75
 20
14.152
 21
14.201
  0
LINE
  8
0
 10
-50.75
 11
-50.839
 20
14.201
 21
14.256
  0
LINE
  8
0
 10
-50.839
 11
-50.923
 20
14.256
 21
14.318
  0
LINE
  8
0
 10
-50.923
 11
-51.004
 20
14.318
 21
14.385
  0
LINE
  8
0
 10
-51.004
 11
-51.079
 20
14.385
 21
14.458
  0
LINE
  8
0
 10
-51.079
 11
-51.149
 20
14.458
 21
14.536
  0
LINE
  8
0
 10
-51.149
 11
-51.214
 20
14.536
 21
14.618
  0
LINE
  8
0
 10
-51.214
 11
-51.272
 20
14.618
 21
14.705
  0
LINE
  8
0
 10
-51.272
 11
-51.324
 20
14.705
 21
14.796
  0
LINE
  8
0
 10
-51.324
 11
-51.37
 20
14.796
 21
14.89
  0
LINE
  8
0
 10
-51.37
 11
-51.41
 20
14.89
 21
14.987
  0
LINE
  8
0
 10
-51.41
 11
-51.442
 20
14.987
 21
15.087
  0
LINE
  8
0
 10
-51.442
 11
-51.467
 20
15.087
 21
15.188
  0
LINE
  8
0
 10
-51.467
 11
-51.485
 20
15.188
 21
15.291
  0
LINE
  8
0
 10
-51.485
 11
-51.496
 20
15.291
 21
15.395
  0
LINE
  8
0
 10
-51.496
 11
-51.5
 20
15.395
 21
15.5
  0
LINE
  8
0
 10
-63
 11
-63
 20
-36.5
 21
36.5
  0
LINE
  8
0
 10
-63
 11
63
 20
36.5
 21
36.5
  0
LINE
  8
0
 10
63
 11
63
 20
36.5
 21
-36.5
  0
LINE
  8
0
 10
63
 11
-63
 20
-36.5
 21
-36.5
  0
LINE
  8
0
 10
-46
 11
-46
 20
-9.5
 21
9.5
  0
LINE
  8
0
 10
-46
 11
46
 20
9.5
 21
9.5
  0
LINE
  8
0
 10
46
 11
46
 20
9.5
 21
-9.5
  0
LINE
  8
0
 10
46
 11
-46
 20
-9.5
 21
-9.5
  0
LINE
  8
0
 10
48.5
 11
48.504
 20
-15.5
 21
-15.395
  0
LINE
  8
0
 10
48.504
 11
48.515
 20
-15.395
 21
-15.291
  0
LINE
  8
0
 10
48.515
 11
48.533
 20
-15.291
 21
-15.188
  0
LINE
  8
0
 10
48.533
 11
48.558
 20
-15.188
 21
-15.087
  0
LINE
  8
0
 10
48.558
 11
48.59
 20
-15.087
 21
-14.987
  0
LINE
  8
0
 10
48.59
 11
48.63
 20
-14.987
 21
-14.89
  0
LINE
  8
0
 10
48.63
 11
48.676
 20
-14.89
 21
-14.796
  0
LINE
  8
0
 10
48.676
 11
48.728
 20
-14.796
 21
-14.705
  0
LINE
  8
0
 10
48.728
 11
48.786
 20
-14.705
 21
-14.618
  0
LINE
  8
0
 10
48.786
 11
48.851
 20
-14.618
 21
-14.536
  0
LINE
  8
0
 10
48.851
 11
48.921
 20
-14.536
 21
-14.458
  0
LINE
  8
0
 10
48.921
 11
48.996
 20
-14.458
 21
-14.385
  0
LINE
  8
0
 10
48.996
 11
49.077
 20
-14.385
 21
-14.318
  0
LINE
  8
0
 10
49.077
 11
49.161
 20
-14.318
 21
-14.256
  0
LINE
  8
0
 10
49.161
 11
49.25
 20
-14.256
 21
-14.201
  0
LINE
  8
0
 10
49.25
 11
49.342
 20
-14.201
 21
-14.152
  0
LINE
  8
0
 10
49.342
 11
49.438
 20
-14.152
 21
-14.109
  0
LINE
  8
0
 10
49.438
 11
49.536
 20
-14.109
 21
-14.073
  0
LINE
  8
0
 10
49.536
 11
49.637
 20
-14.073
 21
-14.045
  0
LINE
  8
0
 10
49.637
 11
49.74
 20
-14.045
 21
-14.023
  0
LINE
  8
0
 10
49.74
 11
49.843
 20
-14.023
 21
-14.008
  0
LINE
  8
0
 10
49.843
 11
49.948
 20
-14.008
 21
-14.001
  0
LINE
  8
0
 10
49.948
 11
50.052
 20
-14.001
 21
-14.001
  0
LINE
  8
0
 10
50.052
 11
50.157
 20
-14.001
 21
-14.008
  0
LINE
  8
0
 10
50.157
 11
50.26
 20
-14.008
 21
-14.023
  0
LINE
  8
0
 10
50.26
 11
50.363
 20
-14.023
 21
-14.045
  0
LINE
  8
0
 10
50.363
 11
50.464
 20
-14.045
 21
-14.073
  0
LINE
  8
0
 10
50.464
 11
50.562
 20
-14.073
 21
-14.109
  0
LINE
  8
0
 10
50.562
 11
50.658
 20
-14.109
 21
-14.152
  0
LINE
  8
0
 10
50.658
 11
50.75
 20
-14.152
 21
-14.201
  0
LINE
  8
0
 10
50.75
 11
50.839
 20
-14.201
 21
-14.256
  0
LINE
  8
0
 10
50.839
 11
50.923
 20
-14.256
 21
-14.318
  0
LINE
  8
0
 10
50.923
 11
51.004
 20
-14.318
 21
-14.385
  0
LINE
  8
0
 10
51.004
 11
51.079
 20
-14.385
 21
-14.458
  0
LINE
  8
0
 10
51.079
 11
51.149
 20
-14.458
 21
-14.536
  0
LINE
  8
0
 10
51.149
 11
51.214
 20
-14.536
 21
-14.618
  0
LINE
  8
0
 10
51.214
 11
51.272
 20
-14.618
 21
-14.705
  0
LINE
  8
0
 10
51.272
 11
51.324
 20
-14.705
 21
-14.796
  0
LINE
  8
0
 10
51.324
 11
51.37
 20
-14.796
 21
-14.89
  0
LINE
  8
0
 10
51.37
 11
51.41
 20
-14.89
 21
-14.987
  0
LINE
  8
0
 10
51.41
 11
51.442
 20
-14.987
 21
-15.087
  0
LINE
  8
0
 10
51.442
 11
51.467
 20
-15.087
 21
-15.188
  0
LINE
  8
0
 10
51.467
 11
51.485
 20
-15.188
 21
-15.291
  0
LINE
  8
0
 10
51.485
 11
51.496
 20
-15.291
 21
-15.395
  0
LINE
  8
0
 10
51.496
 11
51.5
 20
-15.395
 21
-15.5
  0
LINE
  8
0
 10
51.5
 11
51.496
 20
-15.5
 21
-15.605
  0
LINE
  8
0
 10
51.496
 11
51.485
 20
-15.605
 21
-15.709
  0
LINE
  8
0
 10
51.485
 11
51.467
 20
-15.709
 21
-15.812
  0
LINE
  8
0
 10
51.467
 11
51.442
 20
-15.812
 21
-15.913
  0
LINE
  8
0
 10
51.442
 11
51.41
 20
-15.913
 21
-16.013
  0
LINE
  8
0
 10
51.41
 11
51.37
 20
-16.013
 21
-16.11
  0
LINE
  8
0
 10
51.37
 11
51.324
 20
-16.11
 21
-16.204
  0
LINE
  8
0
 10
51.324
 11
51.272
 20
-16.204
 21
-16.295
  0
LINE
  8
0
 10
51.272
 11
51.214
 20
-16.295
 21
-16.382
  0
LINE
  8
0
 10
51.214
 11
51.149
 20
-16.382
 21
-16.464
  0
LINE
  8
0
 10
51.149
 11
51.079
 20
-16.464
 21
-16.542
  0
LINE
  8
0
 10
51.079
 11
51.004
 20
-16.542
 21
-16.615
  0
LINE
  8
0
 10
51.004
 11
50.923
 20
-16.615
 21
-16.682
  0
LINE
  8
0
 10
50.923
 11
50.839
 20
-16.682
 21
-16.744
  0
LINE
  8
0
 10
50.839
 11
50.75
 20
-16.744
 21
-16.799
  0
LINE
  8
0
 10
50.75
 11
50.658
 20
-16.799
 21
-16.848
  0
LINE
  8
0
 10
50.658
 11
50.562
 20
-16.848
 21
-16.891
  0
LINE
  8
0
 10
50.562
 11
50.464
 20
-16.891
 21
-16.927
  0
LINE
  8
0
 10
50.464
 11
50.363
 20
-16.927
 21
-16.955
  0
LINE
  8
0
 10
50.363
 11
50.26
 20
-16.955
 21
-16.977
  0
LINE
  8
0
 10
50.26
 11
50.157
 20
-16.977
 21
-16.992
  0
LINE
  8
0
 10
50.157
 11
50.052
 20
-16.992
 21
-16.999
  0
LINE
  8
0
 10
50.052
 11
49.948
 20
-16.999
 21
-16.999
  0
LINE
  8
0
 10
49.948
 11
49.843
 20
-16.999
 21
-16.992
  0
LINE
  8
0
 10
49.843
 11
49.74
 20
-16.992
 21
-16.977
  0
LINE
  8
0
 10
49.74
 11
49.637
 20
-16.977
 21
-16.955
  0
LINE
  8
0
 10
49.637
 11
49.536
 20
-16.955
 21
-16.927
  0
LINE
  8
0
 10
49.536
 11
49.438
 20
-16.927
 21
-16.891
  0
LINE
  8
0
 10
49.438
 11
49.342
 20
-16.891
 21
-16.848
  0
LINE
  8
0
 10
49.342
 11
49.25
 20
-16.848
 21
-16.799
  0
LINE
  8
0
 10
49.25
 11
49.161
 20
-16.799
 21
-16.744
  0
LINE
  8
0
 10
49.161
 11
49.077
 20
-16.744
 21
-16.682
  0
LINE
  8
0
 10
49.077
 11
48.996
 20
-16.682
 21
-16.615
  0
LINE
  8
0
 10
48.996
 11
48.921
 20
-16.615
 21
-16.542
  0
LINE
  8
0
 10
48.921
 11
48.851
 20
-16.542
 21
-16.464
  0
LINE
  8
0
 10
48.851
 11
48.786
 20
-16.464
 21
-16.382
  0
LINE
  8
0
 10
48.786
 11
48.728
 20
-16.382
 21
-16.295
  0
LINE
  8
0
 10
48.728
 11
48.676
 20
-16.295
 21
-16.204
  0
LINE
  8
0
 10
48.676
 11
48.63
 20
-16.204
 21
-16.11
  0
LINE
  8
0
 10
48.63
 11
48.59
 20
-16.11
 21
-16.013
  0
LINE
  8
0
 10
48.59
 11
48.558
 20
-16.013
 21
-15.913
  0
LINE
  8
0
 10
48.558
 11
48.533
 20
-15.913
 21
-15.812
  0
LINE
  8
0
 10
48.533
 11
48.515
 20
-15.812
 21
-15.709
  0
LINE
  8
0
 10
48.515
 11
48.504
 20
-15.709
 21
-15.605
  0
LINE
  8
0
 10
48.504
 11
48.5
 20
-15.605
 21
-15.5
  0
LINE
  8
0
 10
48.5
 11
48.504
 20
15.5
 21
15.605
  0
LINE
  8
0
 10
48.504
 11
48.515
 20
15.605
 21
15.709
  0
LINE
  8
0
 10
48.515
 11
48.533
 20
15.709
 21
15.812
  0
LINE
  8
0
 10
48.533
 11
48.558
 20
15.812
 21
15.913
  0
LINE
  8
0
 10
48.558
 11
48.59
 20
15.913
 21
16.013
  0
LINE
  8
0
 10
48.59
 11
48.63
 20
16.013
 21
16.11
  0
LINE
  8
0
 10
48.63
 11
48.676
 20
16.11
 21
16.204
  0
LINE
  8
0
 10
48.676
 11
48.728
 20
16.204
 21
16.295
  0
LINE
  8
0
 10
48.728
 11
48.786
 20
16.295
 21
16.382
  0
LINE
  8
0
 10
48.786
 11
48.851
 20
16.382
 21
16.464
  0
LINE
  8
0
 10
48.851
 11
48.921
 20
16.464
 21
16.542
  0
LINE
  8
0
 10
48.921
 11
48.996
 20
16.542
 21
16.615
  0
LINE
  8
0
 10
48.996
 11
49.077
 20
16.615
 21
16.682
  0
LINE
  8
0
 10
49.077
 11
49.161
 20
16.682
 21
16.744
  0
LINE
  8
0
 10
49.161
 11
49.25
 20
16.744
 21
16.799
  0
LINE
  8
0
 10
49.25
 11
49.342
 20
16.799
 21
16.848
  0
LINE
  8
0
 10
49.342
 11
49.438
 20
16.848
 21
16.891
  0
LINE
  8
0
 10
49.438
 11
49.536
 20
16.891
 21
16.927
  0
LINE
  8
0
 10
49.536
 11
49.637
 20
16.927
 21
16.955
  0
LINE
  8
0
 10
49.637
 11
49.74
 20
16.955
 21
16.977
  0
LINE
  8
0
 10
49.74
 11
49.843
 20
16.977
 21
16.992
  0
LINE
  8
0
 10
49.843
 11
49.948
 20
16.992
 21
16.999
  0
LINE
  8
0
 10
49.948
 11
50.052
 20
16.999
 21
16.999
  0
LINE
  8
0
 10
50.052
 11
50.157
 20
16.999
 21
16.992
  0
LINE
  8
0
 10
50.157
 11
50.26
 20
16.992
 21
16.977
  0
LINE
  8
0
 10
50.26
 11
50.363
 20
16.977
 21
16.955
  0
LINE
  8
0
 10
50.363
 11
50.464
 20
16.955
 21
16.927
  0
LINE
  8
0
 10
50.464
 11
50.562
 20
16.927
 21
16.891
  0
LINE
  8
0
 10
50.562
 11
50.658
 20
16.891
 21
16.848
  0
LINE
  8
0
 10
50.658
 11
50.75
 20
16.848
 21
16.799
  0
LINE
  8
0
 10
50.75
 11
50.839
 20
16.799
 21
16.744
  0
LINE
  8
0
 10
50.839
 11
50.923
 20
16.744
 21
16.682
  0
LINE
  8
0
 10
50.923
 11
51.004
 20
16.682
 21
16.615
  0
LINE
  8
0
 10
51.004
 11
51.079
 20
16.615
 21
16.542
  0
LINE
  8
0
 10
51.079
 11
51.149
 20
16.542
 21
16.464
  0
LINE
  8
0
 10
51.149
 11
51.214
 20
16.464
 21
16.382
  0
LINE
  8
0
 10
51.214
 11
51.272
 20
16.382
 21
16.295
  0
LINE
  8
0
 10
51.272
 11
51.324
 20
16.295
 21
16.204
  0
LINE
  8
0
 10
51.324
 11
51.37
 20
16.204
 21
16.11
  0
LINE
  8
0
 10
51.37
 11
51.41
 20
16.11
 21
16.013
  0
LINE
  8
0
 10
51.41
 11
51.442
 20
16.013
 21
15.913
  0
LINE
  8
0
 10
51.442
 11
51.467
 20
15.913
 21
15.812
  0
LINE
  8
0
 10
51.467
 11
51.485
 20
15.812
 21
15.709
  0
LINE
  8
0
 10
51.485
 11
51.496
 20
15.709
 21
15.605
  0
LINE
  8
0
 10
51.496
 11
51.5
 20
15.605
 21
15.5
  0
LINE
  8
0
 10
51.5
 11
51.496
 20
15.5
 21
15.395
  0
LINE
  8
0
 10
51.496
 11
51.485
 20
15.395
 21
15.291
  0
LINE
  8
0
 10
51.485
 11
51.467
 20
15.291
 21
15.188
  0
LINE
  8
0
 10
51.467
 11
51.442
 20
15.188
 21
15.087
  0
LINE
  8
0
 10
51.442
 11
51.41
 20
15.087
 21
14.987
  0
LINE
  8
0
 10
51.41
 11
51.37
 20
14.987
 21
14.89
  0
LINE
  8
0
 10
51.37
 11
51.324
 20
14.89
 21
14.796
  0
LINE
  8
0
 10
51.324
 11
51.272
 20
14.796
 21
14.705
  0
LINE
  8
0
 10
51.272
 11
51.214
 20
14.705
 21
14.618
  0
LINE
  8
0
 10
51.214
 11
51.149
 20
14.618
 21
14.536
  0
LINE
  8
0
 10
51.149
 11
51.079
 20
14.536
 21
14.458
  0
LINE
  8
0
 10
51.079
 11
51.004
 20
14.458
 21
14.385
  0
LINE
  8
0
 10
51.004
 11
50.923
 20
14.385
 21
14.318
  0
LINE
  8
0
 10
50.923
 11
50.839
 20
14.318
 21
14.256
  0
LINE
  8
0
 10
50.839
 11
50.75
 20
14.256
 21
14.201
  0
LINE
  8
0
 10
50.75
 11
50.658
 20
14.201
 21
14.152
  0
LINE
  8
0
 10
50.658
 11
50.562
 20
14.152
 21
14.109
  0
LINE
  8
0
 10
50.562
 11
50.464
 20
14.109
 21
14.073
  0
LINE
  8
0
 10
50.464
 11
50.363
 20
14.073
 21
14.045
  0
LINE
  8
0
 10
50.363
 11
50.26
 20
14.045
 21
14.023
  0
LINE
  8
0
 10
50.26
 11
50.157
 20
14.023
 21
14.008
  0
LINE
  8
0
 10
50.157
 11
50.052
 20
14.008
 21
14.001
  0
LINE
  8
0
 10
50.052
 11
49.948
 20
14.001
 21
14.001
  0
LINE
  8
0
 10
49.948
 11
49.843
 20
14.001
 21
14.008
  0
LINE
  8
0
 10
49.843
 11
49.74
 20
14.008
 21
14.023
  0
LINE
  8
0
 10
49.74
 11
49.637
 20
14.023
 21
14.045
  0
LINE
  8
0
 10
49.637
 11
49.536
 20
14.045
 21
14.073
  0
LINE
  8
0
 10
49.536
 11
49.438
 20
14.073
 21
14.109
  0
LINE
  8
0
 10
49.438
 11
49.342
 20
14.109
 21
14.152
  0
LINE
  8
0
 10
49.342
 11
49.25
 20
14.152
 21
14.201
  0
LINE
  8
0
 10
49.25
 11
49.161
 20
14.201
 21
14.256
  0
LINE
  8
0
 10
49.161
 11
49.077
 20
14.256
 21
14.318
  0
LINE
  8
0
 10
49.077
 11
48.996
 20
14.318
 21
14.385
  0
LINE
  8
0
 10
48.996
 11
48.921
 20
14.385
 21
14.458
  0
LINE
  8
0
 10
48.921
 11
48.851
 20
14.458
 21
14.536
  0
LINE
  8
0
 10
48.851
 11
48.786
 20
14.536
 21
14.618
  0
LINE
  8
0
 10
48.786
 11
48.728
 20
14.618
 21
14.705
  0
LINE
  8
0
 10
48.728
 11
48.676
 20
14.705
 21
14.796
  0
LINE
  8
0
 10
48.676
 11
48.63
 20
14.796
 21
14.89
  0
LINE
  8
0
 10
48.63
 11
48.59
 20
14.89
 21
14.987
  0
LINE
  8
0
 10
48.59
 11
48.558
 20
14.987
 21
15.087
  0
LINE
  8
0
 10
48.558
 11
48.533
 20
15.087
 21
15.188
  0
LINE
  8
0
 10
48.533
 11
48.515
 20
15.188
 21
15.291
  0
LINE
  8
0
 10
48.515
 11
48.504
 20
15.291
 21
15.395
  0
LINE
  8
0
 10
48.504
 11
48.5
 20
15.395
 21
15.5
  0
ENDSEC
  0
SECTION
  2
OBJECTS
  0
DICTIONARY
  0
ENDSEC
  0
EOF
